<?xml version="1.0" encoding="UTF-8"?>
<svg version="1.1" xmlns="http://www.w3.org/2000/svg" width="236" height="226">
<path d="M0 0 C1.08796875 0.2784375 2.1759375 0.556875 3.296875 0.84375 C21.96706145 6.12604665 37.37441823 15.28717374 52 28 C52.91845703 28.79083984 52.91845703 28.79083984 53.85546875 29.59765625 C72.47651067 46.89178307 84.40196202 73.86586312 85.3359375 99.12890625 C85.78573125 131.20513177 76.13092482 158.50254122 53.5625 181.8125 C37.3319002 197.49753342 13.67123136 210.94431969 -9.375 212.4375 C-11.169375 212.2209375 -11.169375 212.2209375 -13 212 C-16.06705544 207.90790234 -17.89447404 202.94189256 -19.875 198.25 C-20.22433594 197.42395264 -20.57367188 196.59790527 -20.93359375 195.74682617 C-24.26860969 187.67156502 -26.75383945 179.43390093 -29 171 C-29.17273438 171.79277344 -29.34546875 172.58554688 -29.5234375 173.40234375 C-37.1775837 205.1775837 -37.1775837 205.1775837 -44 212 C-50.03725241 212.56479669 -55.58952134 211.72704083 -61.375 210.0625 C-62.14102539 209.84360107 -62.90705078 209.62470215 -63.69628906 209.39916992 C-78.59973555 204.89273802 -91.83054089 197.63349057 -104 188 C-104.84957275 187.33774414 -104.84957275 187.33774414 -105.71630859 186.66210938 C-107.18422555 185.48983544 -108.59733204 184.24961152 -110 183 C-110 182.34 -110 181.68 -110 181 C-110.66 181 -111.32 181 -112 181 C-112 180.34 -112 179.68 -112 179 C-112.99 178.67 -113.98 178.34 -115 178 C-116.67096642 176.13908358 -118.18666658 174.30345428 -119.6875 172.3125 C-120.12811768 171.72871582 -120.56873535 171.14493164 -121.02270508 170.54345703 C-138.56103137 146.8276123 -146.13024408 118.83657244 -141.8125 89.5625 C-137.30982738 62.0677476 -122.80048594 37.47302328 -100.7421875 20.40234375 C-71.59535292 -0.47309183 -35.15160492 -9.14256989 0 0 Z M-110.58007812 42.32128906 C-126.83620603 61.54019131 -135.93116669 87.80287276 -134 113 C-130.77811839 140.45368031 -117.93792629 164.69553484 -96.41650391 182.29492188 C-84.60415227 191.39534687 -65.78910469 203.00007765 -50 202 C-47.21714532 195.91443666 -44.68957442 189.77802708 -42.375 183.5 C-42.0759375 182.70980469 -41.776875 181.91960937 -41.46875 181.10546875 C-39.50291187 175.79074708 -38.12217102 170.55530208 -37 165 C-38.13695313 164.78085938 -39.27390625 164.56171875 -40.4453125 164.3359375 C-55.68650563 161.2648147 -70.5183536 156.83527424 -81.67578125 145.26171875 C-82.93648386 143.77006162 -82.93648386 143.77006162 -85 144 C-85.26296875 143.4225 -85.5259375 142.845 -85.796875 142.25 C-87.0633429 139.88154056 -88.5232179 138.0534706 -90.25 136 C-102.10219574 120.82130442 -104.84384271 103.72862015 -104 85 C-89.57834962 84.39158662 -76.78948377 86.41236352 -63.4765625 92.01171875 C-61.13481849 93.12354427 -61.13481849 93.12354427 -59 93 C-58.97421875 91.77925781 -58.9484375 90.55851562 -58.921875 89.30078125 C-58.19527218 65.37409166 -49.1970402 45.75609045 -32 29 C-32 28.34 -32 27.68 -32 27 C-29.9375 26.5625 -29.9375 26.5625 -27 27 C-13.78779155 36.15465204 -3.39033688 56.78975556 -0.29589844 71.91943359 C0.69223462 78.86734606 0.26826904 86.01010123 0 93 C5.61977024 92.09722566 10.88055075 90.05277486 16.23046875 88.171875 C23.62936544 85.63511042 30.59057235 84.83199211 38.375 84.875 C39.45974609 84.86919922 39.45974609 84.86919922 40.56640625 84.86328125 C45.87323778 84.87323778 45.87323778 84.87323778 47 86 C48.69549813 104.03097046 43.1317196 123.43717199 31.98828125 137.64453125 C31.33214844 138.42183594 30.67601562 139.19914063 30 140 C29.18595703 140.96486328 29.18595703 140.96486328 28.35546875 141.94921875 C15.59058412 155.77007924 -2.26957488 161.03919544 -20 165 C-19.45028647 171.97969606 -17.48099148 178.05524598 -15.125 184.625 C-14.59712891 186.1409375 -14.59712891 186.1409375 -14.05859375 187.6875 C-12.31183678 192.63556249 -10.50415769 197.3854201 -8 202 C11.50104636 201.29087104 30.92941391 189.83632415 45 177 C45.77730469 176.30390625 46.55460938 175.6078125 47.35546875 174.890625 C60.67757252 162.32519838 69.50243831 145.62863375 74 128 C74.22558594 127.18015625 74.45117188 126.3603125 74.68359375 125.515625 C80.1563602 101.81288479 74.42891105 76.14421857 62.375 55.4375 C46.89281486 31.55571725 23.85757525 14.5429587 -4 8 C-43.34646348 -0.09192775 -83.66808751 12.50630896 -110.58007812 42.32128906 Z M-30 39 C-31.66729192 41.00562721 -33.18740582 42.99837618 -34.6875 45.125 C-35.13158203 45.75229004 -35.57566406 46.37958008 -36.03320312 47.02587891 C-43.77873339 58.23342648 -49.43889851 69.59910999 -49.25 83.4375 C-49.24033203 84.18249756 -49.23066406 84.92749512 -49.22070312 85.69506836 C-49.34806818 94.86200081 -49.34806818 94.86200081 -45.4375 102.78515625 C-44.10049145 104.05477525 -42.7449698 105.30508235 -41.375 106.5390625 C-36.41760148 111.67584058 -32.81608576 117.99435684 -29 124 C-26.67844722 120.93095035 -24.43000938 117.81462846 -22.1875 114.6875 C-19.8321066 111.41419594 -17.46669334 108.355653 -14.6875 105.4375 C-8.02141347 97.68159006 -8.06455445 86.9646192 -8.74121094 77.22119141 C-10.43578269 62.67665009 -18.06101254 49.52100024 -28 39 C-28.66 39 -29.32 39 -30 39 Z M-95 94 C-96.11844687 106.52660494 -90.77997608 121.86193126 -82.73730469 131.515625 C-72.05258959 143.5480289 -58.97015184 151.85887283 -43 155 C-41.41788427 155.06548492 -39.83329919 155.08578381 -38.25 155.0625 C-37.45078125 155.05347656 -36.6515625 155.04445312 -35.828125 155.03515625 C-35.22484375 155.02355469 -34.6215625 155.01195312 -34 155 C-33.68246104 146.17947344 -33.58174205 138.27357944 -37 130 C-37.30550781 129.20464844 -37.61101562 128.40929687 -37.92578125 127.58984375 C-43.57661119 114.62375759 -54.98279176 104.50354474 -67.95898438 99.19921875 C-75.36011597 96.41576521 -82.83493614 93.81843188 -90.8125 93.9375 C-91.99779297 93.95103516 -91.99779297 93.95103516 -93.20703125 93.96484375 C-94.09455078 93.98224609 -94.09455078 93.98224609 -95 94 Z M-5 109 C-5.845625 109.5775 -6.69125 110.155 -7.5625 110.75 C-17.01964605 119.47967328 -23.44437755 132.8525794 -24.1484375 145.7109375 C-24.35697408 150.51381779 -24.35697408 150.51381779 -23 155 C-6.94078272 155.52920108 8.39714996 147.67623354 20 137 C22.52765739 134.46246895 24.81487916 131.83672499 27 129 C27.44988281 128.42121094 27.89976562 127.84242188 28.36328125 127.24609375 C35.05814325 117.64943397 37.76406193 105.51806744 38 94 C21.78389056 92.80861237 7.45051651 99.04519514 -5 109 Z " fill="#48552D" transform="translate(146,8)"/>
</svg>
